<?xml version="1.0" standalone="no"?>
<!DOCTYPE svg PUBLIC "-//W3C//DTD SVG 20010904//EN"
 "http://www.w3.org/TR/2001/REC-SVG-20010904/DTD/svg10.dtd">
<svg version="1.0" xmlns="http://www.w3.org/2000/svg"
 width="256.000000pt" height="256.000000pt" viewBox="0 0 256.000000 256.000000"
 preserveAspectRatio="xMidYMid meet">

<g transform="translate(0.000000,256.000000) scale(0.100000,-0.100000)"
fill="#000000" stroke="none">
<path d="M1064 2541 c-696 -123 -1164 -782 -1044 -1473 119 -690 758 -1155
1447 -1052 275 40 513 161 714 363 155 154 249 306 314 507 194 591 -73 1243
-626 1529 -247 127 -537 173 -805 126z m303 -475 c60 -88 99 -197 90 -254 -4
-20 -26 -65 -51 -101 -51 -75 -71 -129 -81 -218 l-7 -63 -37 0 -37 0 -12 77
c-14 88 -46 164 -94 224 -30 37 -33 47 -33 108 0 59 5 78 42 152 23 46 61 106
84 132 38 45 43 47 63 34 11 -8 44 -49 73 -91z m-317 -312 c63 -54 138 -189
164 -296 6 -26 4 -28 -24 -28 -24 0 -33 7 -49 38 -38 74 -94 105 -137 77 -21
-14 -25 -23 -22 -48 3 -18 8 -40 13 -49 11 -28 -41 -23 -100 10 -90 49 -116
122 -75 207 51 104 161 147 230 89z m612 -3 c51 -32 98 -112 98 -166 0 -45
-38 -96 -95 -127 -59 -33 -111 -38 -100 -10 20 44 17 79 -6 96 -13 9 -31 16
-41 16 -25 0 -83 -54 -102 -95 -14 -28 -23 -35 -46 -35 -17 0 -30 3 -30 7 0 5
12 43 26 86 29 88 108 213 151 239 42 26 92 22 145 -11z m-232 -376 l0 -25
-150 0 -150 0 0 25 0 25 150 0 150 0 0 -25z m-225 -92 c-27 -88 -81 -138 -150
-138 -53 0 -87 28 -87 71 0 53 58 70 107 32 l28 -22 28 32 c16 18 29 41 29 52
0 15 7 20 30 20 l29 0 -14 -47z m111 10 c3 -21 17 -60 30 -86 13 -27 24 -57
24 -68 0 -30 -36 -95 -66 -118 -31 -24 -40 -20 -86 43 -34 48 -35 79 -3 148
14 29 25 68 25 86 0 30 2 32 35 32 32 0 35 -3 41 -37z m84 22 c0 -25 27 -72
46 -79 9 -3 27 3 41 14 48 38 103 17 103 -39 0 -51 -61 -82 -123 -62 -54 18
-102 78 -118 148 -7 31 -5 33 22 33 20 0 29 -5 29 -15z m-897 -421 c28 -5 37
-11 35 -23 -2 -11 -18 -17 -52 -21 -27 -3 -51 -10 -53 -16 -2 -5 20 -21 49
-35 48 -22 53 -27 56 -60 5 -57 -26 -76 -115 -71 -26 2 -33 6 -33 22 0 17 7
20 50 20 42 0 50 3 50 19 0 13 -14 24 -45 35 -31 12 -47 25 -51 41 -10 39 0
69 26 82 29 15 32 15 83 7z m186 0 c21 -5 31 -12 31 -25 0 -14 -9 -19 -47 -21
-47 -3 -48 -4 -56 -43 -5 -25 -5 -50 2 -67 9 -25 16 -28 56 -28 38 0 45 -3 45
-20 0 -15 -7 -20 -27 -22 -100 -6 -123 14 -123 109 0 72 11 100 43 113 28 11
37 11 76 4z m190 -9 c36 -18 41 -32 41 -106 0 -73 -10 -94 -50 -108 -75 -26
-130 18 -130 103 0 60 16 96 50 113 33 17 55 16 89 -2z m570 9 c21 -5 31 -12
31 -25 0 -16 -8 -19 -50 -19 -38 0 -50 -4 -50 -15 0 -9 12 -20 28 -25 66 -24
72 -31 72 -77 0 -41 -3 -45 -35 -59 -31 -13 -57 -12 -102 1 -7 3 -10 11 -7 20
5 11 18 15 45 13 42 -2 70 15 53 32 -6 6 -30 20 -55 33 -34 17 -45 28 -47 50
-4 31 11 55 43 67 26 11 35 11 74 4z m111 -109 c0 -70 -4 -115 -10 -115 -6 0
-10 43 -10 108 0 95 4 122 17 122 2 0 3 -52 3 -115z m148 5 l47 -105 3 108 c4
146 22 139 22 -9 0 -112 -1 -115 -21 -112 -16 2 -32 27 -64 96 -23 51 -45 95
-49 99 -3 3 -6 -39 -6 -95 0 -61 -4 -102 -10 -102 -6 0 -10 45 -10 116 0 111
1 115 21 112 15 -2 32 -29 67 -108z m262 100 c0 -5 -25 -10 -55 -10 l-55 0 0
-50 0 -50 51 0 c31 0 48 -4 44 -10 -3 -5 -26 -10 -51 -10 l-44 0 0 -45 c0 -25
-4 -45 -10 -45 -6 0 -10 45 -10 115 l0 115 65 0 c37 0 65 -4 65 -10z m175 -15
c21 -20 25 -34 25 -84 0 -76 -15 -109 -54 -119 -83 -22 -121 15 -120 117 0 57
4 67 28 88 37 31 89 31 121 -2z m-1143 -54 c-4 -84 8 -113 46 -109 27 3 27 4
30 91 3 85 3 87 27 87 25 0 25 -1 25 -89 0 -113 -13 -134 -85 -134 -72 0 -85
21 -85 134 0 86 1 89 23 89 21 0 22 -3 19 -69z m318 49 c0 -16 -7 -20 -30 -20
l-30 0 0 -90 c0 -89 0 -90 -25 -90 -25 0 -25 1 -25 90 l0 90 -30 0 c-23 0 -30
4 -30 20 0 18 7 20 85 20 78 0 85 -2 85 -20z"/>
<path d="M796 835 c-10 -28 -7 -100 6 -113 7 -7 22 -12 35 -12 32 0 47 42 36
95 -7 35 -12 40 -39 43 -22 2 -33 -2 -38 -13z"/>
<path d="M2036 858 c-18 -26 -22 -119 -6 -149 13 -23 81 -27 100 -4 15 18 24
86 16 119 -14 57 -80 77 -110 34z"/>
</g>
</svg>
